<svg width="500" height="500" viewBox="0 0 500 500" fill="none" xmlns="http://www.w3.org/2000/svg">
<g clip-path="url(#clip0_1_3)">
<rect x="0.5" y="0.5" width="499" height="499" rx="69.5" fill="#2C241F" stroke="#2C241F"/>
<rect x="30.5" y="30.5" width="439" height="439" rx="39.5" fill="#F4E5CB" stroke="#2C241F"/>
<path d="M292.5 254.5H210.5V172L230.5 125H271.5L292.5 172V254.5Z" fill="#EFBB5B"/>
<path d="M213.5 196C224 222 224 222 224 242.5L156.5 245L129.5 186.5L86 169.5C94.8333 156.167 120 130.2 150 133C180 135.8 204.833 176.167 213.5 196Z" fill="#D9523E"/>
<path d="M288.5 196.209C278 222.209 278 222.209 278 242.709L345.5 245.209L372.5 186.709L416 169.709C407.167 156.376 382 130.409 352 133.209C322 136.009 297.167 176.376 288.5 196.209Z" fill="#D9523E"/>
<path d="M251 60C274.196 60 293 78.804 293 102C293 111.801 289.643 120.817 284.016 127.963C289.139 134.793 294.077 142.27 298.169 151.32C327.115 124.647 361.471 116.463 389.225 125.433C405.353 130.645 418.794 141.628 426.521 157.391C430.237 164.97 432.527 173.434 433.268 182.604C446.018 187.832 455 200.366 455 215C455 234.33 439.33 250 420 250C400.67 250 385 234.33 385 215C385 203.742 390.317 193.726 398.575 187.323C398.284 187.054 398.006 186.825 397.74 186.633C395.838 185.258 392.706 184.424 387.004 188.066C375.019 195.722 361.126 218.718 360.521 248.954C367.577 252.874 373.332 258.027 377.807 263.279C386.731 273.754 391.781 285.82 394.26 294.275L394.473 295L394.641 295.737L412.034 371.813L412.348 373.185L412.506 374.582C415.129 397.828 407.045 416.058 393.421 427.771C381.346 438.152 366.51 442.067 355.526 441.996V441.998C327.473 441.998 310.707 420.741 302.992 412.091C292.243 400.037 289.443 398.904 286.284 398.904H286.199L251.755 398.788H216.339C213.008 398.788 210.133 400.018 199.354 412.018C191.551 420.705 174.742 441.834 146.672 441.834V441.833C135.701 441.904 120.834 438.021 108.713 427.675C95.0242 415.991 86.8502 397.747 89.499 374.441L89.6592 373.034L89.9766 371.654L107.477 295.661L107.647 294.921L107.862 294.191C110.362 285.726 115.45 273.662 124.43 263.198C128.87 258.024 134.547 252.964 141.479 249.085C140.913 218.785 126.998 195.733 114.996 188.066C109.294 184.424 106.162 185.258 104.26 186.633C103.994 186.825 103.715 187.054 103.424 187.323C111.683 193.726 117 203.741 117 215C117 234.33 101.33 250 82 250C62.67 250 47 234.33 47 215C47 200.367 55.9811 187.832 68.7314 182.604C69.4722 173.434 71.7629 164.97 75.4785 157.391C83.206 141.628 96.6466 130.645 112.775 125.433C140.529 116.463 174.885 124.647 203.831 151.32C207.923 142.27 212.86 134.793 217.983 127.963C212.357 120.817 209 111.801 209 102C209 78.804 227.804 60 251 60ZM168.839 267C146.672 267 135.506 288.854 131.839 301.271L114.339 377.265C110.839 408.059 135.338 416.999 146.672 416.834C176.672 416.834 184.339 373.788 216.339 373.788H251.839L286.284 373.904C318.089 373.905 325.709 416.998 355.526 416.998C366.791 417.164 391.142 408.213 387.663 377.385L370.27 301.309C366.654 288.975 355.699 267.341 334.009 267.004L333.495 267H168.839ZM182 289C189.18 289 195 294.82 195 302V315H208C215.18 315 221 320.82 221 328C221 335.18 215.18 341 208 341H195V354C195 361.18 189.18 367 182 367C174.82 367 169 361.18 169 354V341H156C148.82 341 143 335.18 143 328C143 320.82 148.82 315 156 315H169V302C169 294.82 174.82 289 182 289ZM320 341C327.18 341 333 346.82 333 354C333 361.18 327.18 367 320 367C312.82 367 307 361.18 307 354C307 346.82 312.82 341 320 341ZM294 315C301.18 315 307 320.82 307 328C307 335.18 301.18 341 294 341C286.82 341 281 335.18 281 328C281 320.82 286.82 315 294 315ZM346 315C353.18 315 359 320.82 359 328C359 335.18 353.18 341 346 341C338.82 341 333 335.18 333 328C333 320.82 338.82 315 346 315ZM320 289C327.18 289 333 294.82 333 302C333 309.18 327.18 315 320 315C312.82 315 307 309.18 307 302C307 294.82 312.82 289 320 289ZM265.349 141.483C260.871 143.111 256.04 144 251 144C245.96 144 241.128 143.111 236.65 141.483C229.159 151.339 223.331 160.81 219.669 175.739L214.201 198.031L199.619 180.307C172.847 147.764 140.988 140.486 119.849 147.317C110.544 150.325 102.962 156.083 97.9941 164.137C108.088 160.455 118.738 163.165 127.378 168.684C146.333 180.792 161.805 209.134 164.182 242.184C165.7 242.063 167.252 242 168.839 242H333.495C334.966 242 336.407 242.056 337.819 242.161C340.201 209.121 355.671 180.789 374.622 168.684C383.262 163.165 393.912 160.455 404.006 164.137C399.038 156.083 391.456 150.325 382.151 147.317C361.012 140.486 329.153 147.764 302.381 180.307L287.799 198.031L282.331 175.739C278.669 160.81 272.841 151.339 265.349 141.483Z" fill="#2C241F"/>
<circle cx="81.5" cy="215.5" r="11.5" fill="#EFBB5B"/>
<circle cx="419.5" cy="215.5" r="11.5" fill="#EFBB5B"/>
<circle cx="251.5" cy="102.5" r="18.5" fill="#EFBB5B"/>
</g>
<defs>
<clipPath id="clip0_1_3">
<rect width="500" height="500" fill="white"/>
</clipPath>
</defs>
</svg>
