<svg width="512" height="512" viewBox="0 0 512 512" fill="none" xmlns="http://www.w3.org/2000/svg">
<g clip-path="url(#clip0_22_8)">
<rect width="512" height="512" rx="50" fill="white"/>
<rect x="166" y="-14" width="180" height="550" stroke="black" stroke-width="10"/>
<rect x="531" y="166" width="180" height="548" transform="rotate(90 531 166)" stroke="black" stroke-width="10"/>
<path d="M412.57 482.5H396.42L440.11 385.94H405.43V393.93H392V372H462.21L412.57 482.5Z" fill="black"/>
<path d="M105.14 482.5H64V469.07H77.43V385.77H65.87V372H91.71V469.07H105.14V482.5Z" fill="black"/>
<path d="M240.08 84.04C242.12 86.08 244.5 87.7233 247.22 88.97C250.053 90.1033 253.057 90.67 256.23 90.67C259.29 90.67 262.18 90.1033 264.9 88.97C267.62 87.7233 270 86.08 272.04 84.04C274.08 82 275.667 79.62 276.8 76.9C277.933 74.0667 278.5 71.0633 278.5 67.89C278.5 64.7167 277.933 61.77 276.8 59.05C275.667 56.2167 274.08 53.7233 272.04 51.57C270 49.53 267.62 47.8867 264.9 46.64C262.18 45.3933 259.29 44.77 256.23 44.77C253.057 44.77 250.053 45.3933 247.22 46.64C244.5 47.8867 242.12 49.53 240.08 51.57C237.927 53.7233 236.227 56.2167 234.98 59.05C233.733 61.77 233.11 64.7167 233.11 67.89C233.11 71.0633 233.733 74.0667 234.98 76.9C236.227 79.62 237.927 82 240.08 84.04ZM274.08 109.37C268.527 115.377 262.463 120.987 255.89 126.2C249.317 131.413 242.97 136.23 236.85 140.65C235.377 138.837 233.903 137.023 232.43 135.21C230.957 133.397 229.483 131.583 228.01 129.77C233.337 126.257 238.04 122.913 242.12 119.74C246.2 116.567 249.827 113.563 253 110.73C254.247 109.597 255.493 108.463 256.74 107.33C257.987 106.197 259.177 105.063 260.31 103.93C259.517 104.157 258.78 104.327 258.1 104.44C257.42 104.44 256.797 104.44 256.23 104.44C251.13 104.44 246.313 103.533 241.78 101.72C237.36 99.7933 233.45 97.13 230.05 93.73C226.65 90.4433 223.93 86.59 221.89 82.17C219.963 77.75 219 72.99 219 67.89C219 62.79 219.963 58.03 221.89 53.61C223.93 49.0767 226.65 45.11 230.05 41.71C233.45 38.4233 237.36 35.8167 241.78 33.89C246.313 31.9633 251.13 31 256.23 31C261.33 31 266.09 32.02 270.51 34.06C275.043 35.9867 279.01 38.5933 282.41 41.88C285.697 45.28 288.303 49.2467 290.23 53.78C292.157 58.2 293.12 62.9033 293.12 67.89C293.12 75.5967 291.307 82.9067 287.68 89.82C284.167 96.7333 279.633 103.25 274.08 109.37Z" fill="black"/>
</g>
<defs>
<clipPath id="clip0_22_8">
<rect width="512" height="512" rx="50" fill="white"/>
</clipPath>
</defs>
</svg>
