<svg width="500" height="500" viewBox="0 0 500 500" fill="none" xmlns="http://www.w3.org/2000/svg">
<g clip-path="url(#clip0_4_134)">
<rect width="500" height="500" rx="100" fill="#EAEAEA"/>
<path d="M187.5 402.5L144 428.5L111.5 414.5L98 383L126 280L151.5 258L348.5 256.5L372.5 274L397 378L393.5 417.5L335.5 424L287.5 388L212.5 386L187.5 402.5Z" fill="#F4E5CB"/>
<path d="M291.5 253.5H209.5V171L229.5 124H270.5L291.5 171V253.5Z" fill="#EFBB5B"/>
<path d="M212.5 195C223 221 223 221 223 241.5L155.5 244L128.5 185.5L85 168.5C93.8333 155.167 119 129.2 149 132C179 134.8 203.833 175.167 212.5 195Z" fill="#D9523E"/>
<path d="M287.5 195.209C277 221.209 277 221.209 277 241.709L344.5 244.209L371.5 185.709L415 168.709C406.167 155.376 381 129.409 351 132.209C321 135.009 296.167 175.376 287.5 195.209Z" fill="#D9523E"/>
<path d="M250 59C273.196 59 292 77.804 292 101C292 110.801 288.643 119.817 283.016 126.963C288.139 133.793 293.077 141.27 297.169 150.32C326.115 123.647 360.471 115.463 388.225 124.433C404.353 129.645 417.794 140.628 425.521 156.391C429.237 163.97 431.527 172.434 432.268 181.604C445.018 186.832 454 199.366 454 214C454 233.33 438.33 249 419 249C399.67 249 384 233.33 384 214C384 202.742 389.317 192.726 397.575 186.323C397.284 186.054 397.006 185.825 396.74 185.633C394.838 184.258 391.706 183.424 386.004 187.066C374.019 194.722 360.126 217.718 359.521 247.954C366.577 251.874 372.332 257.027 376.807 262.279C385.731 272.754 390.781 284.82 393.26 293.275L393.473 294L393.641 294.737L411.034 370.813L411.348 372.185L411.506 373.582C414.129 396.828 406.045 415.058 392.421 426.771C380.346 437.152 365.51 441.067 354.526 440.996V440.998C326.473 440.998 309.707 419.741 301.992 411.091C291.243 399.037 288.443 397.904 285.284 397.904H285.199L250.755 397.788H215.339C212.008 397.788 209.133 399.018 198.354 411.018C190.551 419.705 173.742 440.834 145.672 440.834V440.833C134.701 440.904 119.834 437.021 107.713 426.675C94.0242 414.991 85.8502 396.747 88.499 373.441L88.6592 372.034L88.9766 370.654L106.477 294.661L106.647 293.921L106.862 293.191C109.362 284.726 114.45 272.662 123.43 262.198C127.87 257.024 133.547 251.964 140.479 248.085C139.913 217.785 125.998 194.733 113.996 187.066C108.294 183.424 105.162 184.258 103.26 185.633C102.994 185.825 102.715 186.054 102.424 186.323C110.683 192.726 116 202.741 116 214C116 233.33 100.33 249 81 249C61.67 249 46 233.33 46 214C46 199.367 54.9811 186.832 67.7314 181.604C68.4722 172.434 70.7629 163.97 74.4785 156.391C82.206 140.628 95.6466 129.645 111.775 124.433C139.529 115.463 173.885 123.647 202.831 150.32C206.923 141.27 211.86 133.793 216.983 126.963C211.357 119.817 208 110.801 208 101C208 77.804 226.804 59 250 59ZM167.839 266C145.672 266 134.506 287.854 130.839 300.271L113.339 376.265C109.839 407.059 134.338 415.999 145.672 415.834C175.672 415.834 183.339 372.788 215.339 372.788H250.839L285.284 372.904C317.089 372.905 324.709 415.998 354.526 415.998C365.791 416.164 390.142 407.213 386.663 376.385L369.27 300.309C365.654 287.975 354.699 266.341 333.009 266.004L332.495 266H167.839ZM181 288C188.18 288 194 293.82 194 301V314H207C214.18 314 220 319.82 220 327C220 334.18 214.18 340 207 340H194V353C194 360.18 188.18 366 181 366C173.82 366 168 360.18 168 353V340H155C147.82 340 142 334.18 142 327C142 319.82 147.82 314 155 314H168V301C168 293.82 173.82 288 181 288ZM319 340C326.18 340 332 345.82 332 353C332 360.18 326.18 366 319 366C311.82 366 306 360.18 306 353C306 345.82 311.82 340 319 340ZM293 314C300.18 314 306 319.82 306 327C306 334.18 300.18 340 293 340C285.82 340 280 334.18 280 327C280 319.82 285.82 314 293 314ZM345 314C352.18 314 358 319.82 358 327C358 334.18 352.18 340 345 340C337.82 340 332 334.18 332 327C332 319.82 337.82 314 345 314ZM319 288C326.18 288 332 293.82 332 301C332 308.18 326.18 314 319 314C311.82 314 306 308.18 306 301C306 293.82 311.82 288 319 288ZM264.349 140.483C259.871 142.111 255.04 143 250 143C244.96 143 240.128 142.111 235.65 140.483C228.159 150.339 222.331 159.81 218.669 174.739L213.201 197.031L198.619 179.307C171.847 146.764 139.988 139.486 118.849 146.317C109.544 149.325 101.962 155.083 96.9941 163.137C107.088 159.455 117.738 162.165 126.378 167.684C145.333 179.792 160.805 208.134 163.182 241.184C164.7 241.063 166.252 241 167.839 241H332.495C333.966 241 335.407 241.056 336.819 241.161C339.201 208.121 354.671 179.789 373.622 167.684C382.262 162.165 392.912 159.455 403.006 163.137C398.038 155.083 390.456 149.325 381.151 146.317C360.012 139.486 328.153 146.764 301.381 179.307L286.799 197.031L281.331 174.739C277.669 159.81 271.841 150.339 264.349 140.483Z" fill="#2C241F"/>
<circle cx="80.5" cy="214.5" r="11.5" fill="#EFBB5B"/>
<circle cx="418.5" cy="214.5" r="11.5" fill="#EFBB5B"/>
<circle cx="250.5" cy="101.5" r="18.5" fill="#EFBB5B"/>
</g>
<defs>
<clipPath id="clip0_4_134">
<rect width="500" height="500" fill="white"/>
</clipPath>
</defs>
</svg>
