<svg width="2850" height="1000" viewBox="0 0 2850 1000" fill="none" xmlns="http://www.w3.org/2000/svg">
<path d="M2459.5 45.5C2587.69 45.5 2671.22 96.5994 2721.55 163.526C2770.47 228.586 2785.99 305.742 2785.5 358C2785.5 503.117 2694.34 589.542 2624.91 628.307L2796.82 892.357H2796.83C2812.42 916.304 2795.23 948 2766.66 948H2574.05C2561.68 948 2550.17 941.645 2543.58 931.167L2376.17 665H2326.5V912C2326.5 931.883 2310.38 948 2290.5 948H2121.5C2101.61 948 2085.49 931.869 2085.5 911.979L2086 81.4785L2086.01 80.6621C2086.44 63.5112 2100.03 45.5 2121.95 45.5H2459.5Z" fill="#D9523E" stroke="#2C241F" stroke-width="70"/>
<path d="M2292 236H2458C2518.75 236 2568 285.249 2568 346V369C2568 429.751 2518.75 479 2458 479H2292V236Z" fill="#2C241F"/>
<path d="M1568 44.5C1587.88 44.5 1604 60.6181 1604 80.5V498.537L1771.71 285.718V285.717C1778.54 277.055 1788.96 272 1799.99 272H1983.92C2014.1 272 2030.89 306.917 2012.03 330.489L1788.81 609.518L2012.05 889.033L2012.49 889.588C2030.62 913.153 2013.86 947.5 1983.92 947.5H1799.97C1789.19 947.5 1778.98 942.669 1772.14 934.331V934.33L1604 729.354V911.5C1604 931.383 1587.88 947.5 1568 947.5H1424C1404.12 947.5 1388 931.381 1388 911.5V80.5C1388 60.6179 1404.12 44.5 1424 44.5H1568Z" fill="#F4E5CB" stroke="#2C241F" stroke-width="70"/>
<path d="M1015 256C1179.81 256 1346 384.163 1346 609.5H1346C1346.32 667.506 1330.76 753.978 1281.72 827.117C1231.33 902.259 1146.56 961.5 1015 961.5C883.482 961.5 798.014 902.319 746.617 827.431C696.633 754.601 679.669 668.446 679.011 610.426C676.556 551.895 689.866 464.754 739.148 390.993C789.992 314.896 877.339 256 1015 256Z" fill="#F4E5CB" stroke="#2C241F" stroke-width="70"/>
<rect x="869" y="427" width="290" height="364" rx="145" fill="#2C241F"/>
<path d="M607 45C626.883 45 643 61.1183 643 81V661C643 724.086 628.43 799.034 582.146 859.009C534.633 920.574 457.446 961.5 343 961.5C251.165 961.5 174.233 933.87 120.134 880.191C66.0278 826.506 38.7237 750.697 38.501 662.099C38.4522 642.625 54.1432 626 74.5 626H234C253.177 626 269.859 641.348 270.003 661.736L270.026 663.353C270.395 680.185 274.696 700.818 285.219 716.391C294.698 730.418 310.748 743 343 743C378.786 743 392.815 731.86 399.907 721.653C408.828 708.815 413 688.572 413 661V274H385C365.118 274 349 257.883 349 238V81C349 61.1175 365.118 45 385 45H607Z" fill="#F4E5CB" stroke="#2C241F" stroke-width="70"/>
</svg>
